<svg width="1100" height="230" viewBox="0 0 1100 230" fill="none" xmlns="http://www.w3.org/2000/svg">
  <defs>
    <linearGradient id="g" x1="0" y1="0" x2="1100" y2="230" gradientUnits="userSpaceOnUse">
      <stop stop-color="#070B12"/>
      <stop offset="0.55" stop-color="#0D1117"/>
      <stop offset="1" stop-color="#16070B"/>
    </linearGradient>
    <filter id="glow" x="-20%" y="-20%" width="140%" height="140%">
      <feGaussianBlur stdDeviation="3" result="blur"/>
      <feMerge><feMergeNode in="blur"/><feMergeNode in="SourceGraphic"/></feMerge>
    </filter>
  </defs>
  <rect x="8" y="8" width="1084" height="214" rx="28" fill="url(#g)" stroke="#8B1E3F" stroke-width="2"/>
  <circle cx="95" cy="115" r="55" fill="#120508" stroke="#8B1E3F" stroke-width="2"/>
  <text x="95" y="105" text-anchor="middle" fill="#8B1E3F" font-family="Georgia,serif" font-size="30" font-weight="700">Alura</text>
  <text x="95" y="135" text-anchor="middle" fill="#F4F7FB" font-family="monospace" font-size="14">certificado</text>
  <text x="180" y="78" fill="#F4F7FB" font-family="Georgia,serif" font-size="34" font-weight="700">Formação & Certificados</text>
  <text x="180" y="114" fill="#BFC7D5" font-family="monospace" font-size="18">Java • Orientação a Objetos • Arquitetura de Computadores • Aprendizado</text>
  <rect x="180" y="145" width="170" height="42" rx="12" fill="#151B26" stroke="#3A1B22"/>
  <text x="265" y="172" text-anchor="middle" fill="#8B1E3F" font-family="monospace" font-size="18" font-weight="700">103h concluídas</text>
  <rect x="370" y="145" width="140" height="42" rx="12" fill="#151B26" stroke="#3A1B22"/>
  <text x="440" y="172" text-anchor="middle" fill="#F4F7FB" font-family="monospace" font-size="18" font-weight="700">2026</text>
  <rect x="530" y="145" width="200" height="42" rx="12" fill="#151B26" stroke="#3A1B22"/>
  <text x="630" y="172" text-anchor="middle" fill="#F4F7FB" font-family="monospace" font-size="18" font-weight="700">Trilha Java 36h</text>
  <rect x="750" y="145" width="250" height="42" rx="12" fill="#151B26" stroke="#3A1B22"/>
  <text x="875" y="172" text-anchor="middle" fill="#F4F7FB" font-family="monospace" font-size="18" font-weight="700">Programação 45h</text>
  <path d="M1010 55 C1040 75 1040 155 1010 175" stroke="#8B1E3F" stroke-opacity="0.45" stroke-width="3" filter="url(#glow)"/>
</svg>